<mxfile host="app.diagrams.net" agent="Mozilla/5.0 (Macintosh; Intel Mac OS X 10_15_7) AppleWebKit/537.36 (KHTML, like Gecko) Chrome/135.0.0.0 Safari/537.36" version="27.0.1">
  <diagram name="Page-1" id="GShK46ADUv2CoVEiE2K-">
    <mxGraphModel dx="595" dy="524" grid="1" gridSize="10" guides="1" tooltips="1" connect="1" arrows="1" fold="1" page="1" pageScale="1" pageWidth="850" pageHeight="1100" math="0" shadow="0">
      <root>
        <mxCell id="0" />
        <mxCell id="1" parent="0" />
        <mxCell id="zEohq8ZaGuiytrcJgoYA-39" style="edgeStyle=orthogonalEdgeStyle;rounded=0;orthogonalLoop=1;jettySize=auto;html=1;entryX=0;entryY=0;entryDx=0;entryDy=0;" edge="1" parent="1" source="zEohq8ZaGuiytrcJgoYA-1" target="zEohq8ZaGuiytrcJgoYA-35">
          <mxGeometry relative="1" as="geometry" />
        </mxCell>
        <mxCell id="zEohq8ZaGuiytrcJgoYA-1" value="Make website" style="rounded=0;whiteSpace=wrap;html=1;" vertex="1" parent="1">
          <mxGeometry x="160" y="300" width="120" height="60" as="geometry" />
        </mxCell>
        <mxCell id="zEohq8ZaGuiytrcJgoYA-3" style="edgeStyle=orthogonalEdgeStyle;rounded=0;orthogonalLoop=1;jettySize=auto;html=1;entryX=0.5;entryY=0;entryDx=0;entryDy=0;" edge="1" parent="1" source="zEohq8ZaGuiytrcJgoYA-2" target="zEohq8ZaGuiytrcJgoYA-1">
          <mxGeometry relative="1" as="geometry" />
        </mxCell>
        <mxCell id="zEohq8ZaGuiytrcJgoYA-2" value="start&lt;div&gt;&lt;span style=&quot;color: rgb(34, 34, 34); font-family: Aptos, sans-serif; font-size: 14.6667px; text-align: left; background-color: rgb(255, 255, 255);&quot;&gt;K8S demo app on OpenShift&lt;/span&gt;&lt;/div&gt;" style="ellipse;whiteSpace=wrap;html=1;aspect=fixed;" vertex="1" parent="1">
          <mxGeometry x="310" y="70" width="140" height="140" as="geometry" />
        </mxCell>
        <mxCell id="zEohq8ZaGuiytrcJgoYA-40" style="edgeStyle=orthogonalEdgeStyle;rounded=0;orthogonalLoop=1;jettySize=auto;html=1;" edge="1" parent="1" source="zEohq8ZaGuiytrcJgoYA-10" target="zEohq8ZaGuiytrcJgoYA-12">
          <mxGeometry relative="1" as="geometry" />
        </mxCell>
        <mxCell id="zEohq8ZaGuiytrcJgoYA-10" value="Containerisation" style="rounded=0;whiteSpace=wrap;html=1;" vertex="1" parent="1">
          <mxGeometry x="365" y="710" width="120" height="60" as="geometry" />
        </mxCell>
        <mxCell id="zEohq8ZaGuiytrcJgoYA-43" style="edgeStyle=orthogonalEdgeStyle;rounded=0;orthogonalLoop=1;jettySize=auto;html=1;" edge="1" parent="1" source="zEohq8ZaGuiytrcJgoYA-12" target="zEohq8ZaGuiytrcJgoYA-42">
          <mxGeometry relative="1" as="geometry" />
        </mxCell>
        <mxCell id="zEohq8ZaGuiytrcJgoYA-12" value="Deployement" style="rounded=0;whiteSpace=wrap;html=1;" vertex="1" parent="1">
          <mxGeometry x="380" y="830" width="90" height="40" as="geometry" />
        </mxCell>
        <mxCell id="zEohq8ZaGuiytrcJgoYA-33" style="edgeStyle=orthogonalEdgeStyle;rounded=0;orthogonalLoop=1;jettySize=auto;html=1;entryX=0.5;entryY=0;entryDx=0;entryDy=0;" edge="1" parent="1" source="zEohq8ZaGuiytrcJgoYA-30" target="zEohq8ZaGuiytrcJgoYA-32">
          <mxGeometry relative="1" as="geometry" />
        </mxCell>
        <mxCell id="zEohq8ZaGuiytrcJgoYA-30" value="Templates" style="rounded=0;whiteSpace=wrap;html=1;" vertex="1" parent="1">
          <mxGeometry x="460" y="280" width="120" height="50" as="geometry" />
        </mxCell>
        <mxCell id="zEohq8ZaGuiytrcJgoYA-31" style="edgeStyle=orthogonalEdgeStyle;rounded=0;orthogonalLoop=1;jettySize=auto;html=1;entryX=0.417;entryY=-0.017;entryDx=0;entryDy=0;entryPerimeter=0;" edge="1" parent="1" source="zEohq8ZaGuiytrcJgoYA-2" target="zEohq8ZaGuiytrcJgoYA-30">
          <mxGeometry relative="1" as="geometry" />
        </mxCell>
        <mxCell id="zEohq8ZaGuiytrcJgoYA-38" style="edgeStyle=orthogonalEdgeStyle;rounded=0;orthogonalLoop=1;jettySize=auto;html=1;entryX=1;entryY=0;entryDx=0;entryDy=0;" edge="1" parent="1" source="zEohq8ZaGuiytrcJgoYA-32" target="zEohq8ZaGuiytrcJgoYA-35">
          <mxGeometry relative="1" as="geometry" />
        </mxCell>
        <mxCell id="zEohq8ZaGuiytrcJgoYA-32" value="index.html" style="rounded=0;whiteSpace=wrap;html=1;" vertex="1" parent="1">
          <mxGeometry x="460" y="370" width="120" height="60" as="geometry" />
        </mxCell>
        <mxCell id="zEohq8ZaGuiytrcJgoYA-35" value="" style="rhombus;whiteSpace=wrap;html=1;" vertex="1" parent="1">
          <mxGeometry x="370" y="550" width="80" height="80" as="geometry" />
        </mxCell>
        <mxCell id="zEohq8ZaGuiytrcJgoYA-36" style="edgeStyle=orthogonalEdgeStyle;rounded=0;orthogonalLoop=1;jettySize=auto;html=1;entryX=0.367;entryY=0.017;entryDx=0;entryDy=0;entryPerimeter=0;" edge="1" parent="1" source="zEohq8ZaGuiytrcJgoYA-35" target="zEohq8ZaGuiytrcJgoYA-10">
          <mxGeometry relative="1" as="geometry" />
        </mxCell>
        <mxCell id="zEohq8ZaGuiytrcJgoYA-41" value="yes" style="edgeLabel;html=1;align=center;verticalAlign=middle;resizable=0;points=[];" vertex="1" connectable="0" parent="zEohq8ZaGuiytrcJgoYA-36">
          <mxGeometry x="0.0766" y="1" relative="1" as="geometry">
            <mxPoint as="offset" />
          </mxGeometry>
        </mxCell>
        <mxCell id="zEohq8ZaGuiytrcJgoYA-42" value="End" style="ellipse;whiteSpace=wrap;html=1;aspect=fixed;" vertex="1" parent="1">
          <mxGeometry x="570" y="790" width="80" height="80" as="geometry" />
        </mxCell>
      </root>
    </mxGraphModel>
  </diagram>
</mxfile>
